<mxfile host="Electron" modified="2024-02-29T20:32:49.405Z" agent="Mozilla/5.0 (X11; Linux x86_64) AppleWebKit/537.36 (KHTML, like Gecko) draw.io/23.1.5 Chrome/120.0.6099.109 Electron/28.1.0 Safari/537.36" etag="y3KrtGQHzMJeA8-ago9q" version="23.1.5" type="device">
  <diagram name="Page-1" id="pvK5DeVsekXJq_pi3THo">
    <mxGraphModel dx="1144" dy="867" grid="1" gridSize="10" guides="1" tooltips="1" connect="1" arrows="1" fold="1" page="1" pageScale="1" pageWidth="850" pageHeight="1100" math="1" shadow="0">
      <root>
        <mxCell id="0" />
        <mxCell id="1" parent="0" />
        <mxCell id="vSNJJb_e07-YlO33K66Q-1" value="" style="group" vertex="1" connectable="0" parent="1">
          <mxGeometry x="238" y="180" width="772" height="480" as="geometry" />
        </mxCell>
        <mxCell id="wvLeQyS7q3xwca9dgpaq-7" value="" style="shape=parallelogram;perimeter=parallelogramPerimeter;whiteSpace=wrap;html=1;fixedSize=1;size=240;rotation=0;fillColor=#b1ddf0;strokeColor=#10739e;shadow=0;rounded=0;opacity=70;" parent="vSNJJb_e07-YlO33K66Q-1" vertex="1">
          <mxGeometry x="163" y="208" width="609" height="170" as="geometry" />
        </mxCell>
        <mxCell id="wvLeQyS7q3xwca9dgpaq-2" value="" style="endArrow=classic;html=1;rounded=0;strokeWidth=4;shadow=1;" parent="vSNJJb_e07-YlO33K66Q-1" edge="1">
          <mxGeometry width="50" height="50" relative="1" as="geometry">
            <mxPoint x="162" y="380" as="sourcePoint" />
            <mxPoint x="542" y="380" as="targetPoint" />
          </mxGeometry>
        </mxCell>
        <mxCell id="wvLeQyS7q3xwca9dgpaq-3" value="" style="endArrow=classic;html=1;rounded=0;shadow=1;" parent="vSNJJb_e07-YlO33K66Q-1" edge="1">
          <mxGeometry width="50" height="50" relative="1" as="geometry">
            <mxPoint x="162" y="378" as="sourcePoint" />
            <mxPoint x="412" y="200" as="targetPoint" />
          </mxGeometry>
        </mxCell>
        <mxCell id="wvLeQyS7q3xwca9dgpaq-4" value="$$z$$" style="text;html=1;align=center;verticalAlign=middle;whiteSpace=wrap;rounded=0;fontSize=28;" parent="vSNJJb_e07-YlO33K66Q-1" vertex="1">
          <mxGeometry x="103" y="30" width="60" height="30" as="geometry" />
        </mxCell>
        <mxCell id="wvLeQyS7q3xwca9dgpaq-5" value="$$x$$" style="text;html=1;align=center;verticalAlign=middle;whiteSpace=wrap;rounded=0;fontSize=28;" parent="vSNJJb_e07-YlO33K66Q-1" vertex="1">
          <mxGeometry x="502" y="390" width="60" height="30" as="geometry" />
        </mxCell>
        <mxCell id="wvLeQyS7q3xwca9dgpaq-6" value="$$y$$" style="text;html=1;align=center;verticalAlign=middle;whiteSpace=wrap;rounded=0;fontSize=20;" parent="vSNJJb_e07-YlO33K66Q-1" vertex="1">
          <mxGeometry x="362" y="178" width="60" height="30" as="geometry" />
        </mxCell>
        <mxCell id="wvLeQyS7q3xwca9dgpaq-8" value="" style="ellipse;whiteSpace=wrap;html=1;fillColor=none;strokeWidth=4;strokeColor=#CC0000;shadow=1;opacity=70;" parent="vSNJJb_e07-YlO33K66Q-1" vertex="1">
          <mxGeometry y="317" width="330" height="120" as="geometry" />
        </mxCell>
        <mxCell id="wvLeQyS7q3xwca9dgpaq-11" value="" style="endArrow=classic;html=1;rounded=0;strokeWidth=2;" parent="vSNJJb_e07-YlO33K66Q-1" edge="1">
          <mxGeometry width="50" height="50" relative="1" as="geometry">
            <mxPoint x="161" y="382" as="sourcePoint" />
            <mxPoint x="41" y="412" as="targetPoint" />
          </mxGeometry>
        </mxCell>
        <mxCell id="wvLeQyS7q3xwca9dgpaq-12" value="$$R$$" style="text;html=1;align=center;verticalAlign=middle;whiteSpace=wrap;rounded=0;fontSize=28;" parent="vSNJJb_e07-YlO33K66Q-1" vertex="1">
          <mxGeometry x="62" y="362" width="60" height="30" as="geometry" />
        </mxCell>
        <mxCell id="wvLeQyS7q3xwca9dgpaq-14" value="" style="endArrow=classic;html=1;rounded=0;strokeWidth=3;strokeColor=#0000FF;" parent="vSNJJb_e07-YlO33K66Q-1" edge="1">
          <mxGeometry width="50" height="50" relative="1" as="geometry">
            <mxPoint x="145" y="437" as="sourcePoint" />
            <mxPoint x="185" y="437" as="targetPoint" />
          </mxGeometry>
        </mxCell>
        <mxCell id="wvLeQyS7q3xwca9dgpaq-15" value="$$I$$" style="text;html=1;align=center;verticalAlign=middle;whiteSpace=wrap;rounded=0;fontSize=28;" parent="vSNJJb_e07-YlO33K66Q-1" vertex="1">
          <mxGeometry x="127" y="450" width="60" height="30" as="geometry" />
        </mxCell>
        <mxCell id="wvLeQyS7q3xwca9dgpaq-1" value="" style="endArrow=classic;html=1;rounded=0;strokeWidth=7;" parent="vSNJJb_e07-YlO33K66Q-1" edge="1">
          <mxGeometry width="50" height="50" relative="1" as="geometry">
            <mxPoint x="162" y="380" as="sourcePoint" />
            <mxPoint x="162" as="targetPoint" />
          </mxGeometry>
        </mxCell>
        <mxCell id="wvLeQyS7q3xwca9dgpaq-16" value="" style="endArrow=classic;html=1;rounded=0;" parent="vSNJJb_e07-YlO33K66Q-1" edge="1">
          <mxGeometry width="50" height="50" relative="1" as="geometry">
            <mxPoint x="162" y="380" as="sourcePoint" />
            <mxPoint x="352" y="50" as="targetPoint" />
          </mxGeometry>
        </mxCell>
        <mxCell id="wvLeQyS7q3xwca9dgpaq-17" value="$$|\vec{r}^{\prime}| = R$$" style="text;html=1;align=center;verticalAlign=middle;whiteSpace=wrap;rounded=0;fontSize=10;" parent="vSNJJb_e07-YlO33K66Q-1" vertex="1">
          <mxGeometry x="272" y="354" width="42" height="20" as="geometry" />
        </mxCell>
        <mxCell id="wvLeQyS7q3xwca9dgpaq-20" value="" style="endArrow=classic;html=1;rounded=0;entryX=0.915;entryY=0.275;entryDx=0;entryDy=0;entryPerimeter=0;" parent="vSNJJb_e07-YlO33K66Q-1" target="wvLeQyS7q3xwca9dgpaq-8" edge="1">
          <mxGeometry width="50" height="50" relative="1" as="geometry">
            <mxPoint x="162" y="380" as="sourcePoint" />
            <mxPoint x="212" y="330" as="targetPoint" />
          </mxGeometry>
        </mxCell>
        <mxCell id="wvLeQyS7q3xwca9dgpaq-29" value="" style="endArrow=classicThin;html=1;rounded=0;strokeWidth=3;endFill=1;strokeColor=#23445d;curved=1;endSize=9;startSize=7;shadow=0;fillColor=#bac8d3;" parent="vSNJJb_e07-YlO33K66Q-1" edge="1">
          <mxGeometry width="50" height="50" relative="1" as="geometry">
            <mxPoint x="319" y="353" as="sourcePoint" />
            <mxPoint x="299" y="343" as="targetPoint" />
          </mxGeometry>
        </mxCell>
        <mxCell id="wvLeQyS7q3xwca9dgpaq-30" value="$$\vec{r}_p$$" style="text;html=1;align=center;verticalAlign=middle;whiteSpace=wrap;rounded=0;fontSize=28;" parent="vSNJJb_e07-YlO33K66Q-1" vertex="1">
          <mxGeometry x="232" y="108" width="60" height="70" as="geometry" />
        </mxCell>
        <mxCell id="wvLeQyS7q3xwca9dgpaq-32" value="" style="endArrow=classic;html=1;rounded=0;fontSize=24;strokeWidth=3;strokeColor=#3333FF;shadow=0;" parent="vSNJJb_e07-YlO33K66Q-1" edge="1">
          <mxGeometry width="50" height="50" relative="1" as="geometry">
            <mxPoint x="312" y="350.57142857142856" as="sourcePoint" />
            <mxPoint x="352" y="50" as="targetPoint" />
          </mxGeometry>
        </mxCell>
        <mxCell id="wvLeQyS7q3xwca9dgpaq-33" value="$$\vec{r}$$" style="text;html=1;align=center;verticalAlign=middle;whiteSpace=wrap;rounded=0;fontSize=28;" parent="vSNJJb_e07-YlO33K66Q-1" vertex="1">
          <mxGeometry x="282" y="178" width="60" height="70" as="geometry" />
        </mxCell>
        <mxCell id="wvLeQyS7q3xwca9dgpaq-34" value="$$\theta$$" style="text;html=1;align=center;verticalAlign=middle;whiteSpace=wrap;rounded=0;fontSize=14;" parent="vSNJJb_e07-YlO33K66Q-1" vertex="1">
          <mxGeometry x="238" y="361" width="20" height="20" as="geometry" />
        </mxCell>
        <mxCell id="wvLeQyS7q3xwca9dgpaq-37" value="&lt;font face=&quot;XKCD&quot;&gt;source&lt;/font&gt;" style="text;html=1;align=center;verticalAlign=middle;whiteSpace=wrap;rounded=0;" parent="vSNJJb_e07-YlO33K66Q-1" vertex="1">
          <mxGeometry x="314" y="331" width="60" height="30" as="geometry" />
        </mxCell>
        <mxCell id="wvLeQyS7q3xwca9dgpaq-38" value="$$\cdot$$" style="text;html=1;align=center;verticalAlign=middle;whiteSpace=wrap;rounded=0;fontSize=36;fontColor=#6600CC;" parent="vSNJJb_e07-YlO33K66Q-1" vertex="1">
          <mxGeometry x="347" y="40" width="9" height="10" as="geometry" />
        </mxCell>
        <mxCell id="wvLeQyS7q3xwca9dgpaq-40" value="&lt;font face=&quot;XKCD&quot;&gt;field point&lt;/font&gt;" style="text;html=1;align=center;verticalAlign=middle;whiteSpace=wrap;rounded=0;" parent="vSNJJb_e07-YlO33K66Q-1" vertex="1">
          <mxGeometry x="321.5" y="10" width="60" height="30" as="geometry" />
        </mxCell>
        <mxCell id="wvLeQyS7q3xwca9dgpaq-21" value="" style="endArrow=none;dashed=1;html=1;rounded=0;entryX=0.31;entryY=0.541;entryDx=0;entryDy=0;entryPerimeter=0;" parent="vSNJJb_e07-YlO33K66Q-1" target="wvLeQyS7q3xwca9dgpaq-7" edge="1">
          <mxGeometry width="50" height="50" relative="1" as="geometry">
            <mxPoint x="162" y="380" as="sourcePoint" />
            <mxPoint x="212" y="330" as="targetPoint" />
          </mxGeometry>
        </mxCell>
        <mxCell id="wvLeQyS7q3xwca9dgpaq-19" value="" style="endArrow=none;dashed=1;html=1;rounded=0;strokeColor=#4D9900;" parent="vSNJJb_e07-YlO33K66Q-1" edge="1">
          <mxGeometry width="50" height="50" relative="1" as="geometry">
            <mxPoint x="353" y="298" as="sourcePoint" />
            <mxPoint x="353" y="59" as="targetPoint" />
          </mxGeometry>
        </mxCell>
      </root>
    </mxGraphModel>
  </diagram>
</mxfile>
